<?xml version="1.0" encoding="UTF-8" standalone="no"?>
<!-- Created with Inkscape (http://www.inkscape.org/) -->

<svg
   xmlns:dc="http://purl.org/dc/elements/1.1/"
   xmlns:cc="http://creativecommons.org/ns#"
   xmlns:rdf="http://www.w3.org/1999/02/22-rdf-syntax-ns#"
   xmlns:svg="http://www.w3.org/2000/svg"
   xmlns="http://www.w3.org/2000/svg"
   xmlns:sodipodi="http://sodipodi.sourceforge.net/DTD/sodipodi-0.dtd"
   xmlns:inkscape="http://www.inkscape.org/namespaces/inkscape"
   width="25"
   height="25"
   id="svg2"
   version="1.1"
   inkscape:version="0.48.4 r9939"
   sodipodi:docname="worry.svg">
  <defs
     id="defs4" />
  <sodipodi:namedview
     id="base"
     pagecolor="#ffffff"
     bordercolor="#666666"
     borderopacity="1.0"
     inkscape:pageopacity="0.0"
     inkscape:pageshadow="2"
     inkscape:zoom="15.839192"
     inkscape:cx="5.957774"
     inkscape:cy="11.998531"
     inkscape:document-units="px"
     inkscape:current-layer="layer1"
     showgrid="false"
     inkscape:window-width="1366"
     inkscape:window-height="705"
     inkscape:window-x="-8"
     inkscape:window-y="-8"
     inkscape:window-maximized="1" />
  <metadata
     id="metadata7">
    <rdf:RDF>
      <cc:Work
         rdf:about="">
        <dc:format>image/svg+xml</dc:format>
        <dc:type
           rdf:resource="http://purl.org/dc/dcmitype/StillImage" />
        <dc:title></dc:title>
      </cc:Work>
    </rdf:RDF>
  </metadata>
  <g
     inkscape:label="Layer 1"
     inkscape:groupmode="layer"
     id="layer1"
     transform="translate(0,-1027.3622)">
    <path
       sodipodi:type="arc"
       style="opacity:0.98999999000000005;fill:#ffff00;stroke:#000000;stroke-width:0.47460088000000000;stroke-linecap:square;stroke-linejoin:miter;stroke-miterlimit:4;stroke-opacity:1;stroke-dasharray:none"
       id="path2987"
       sodipodi:cx="10.178572"
       sodipodi:cy="11.785714"
       sodipodi:rx="10.178572"
       sodipodi:ry="10.178572"
       d="m 20.357143,11.785714 a 10.178572,10.178572 0 1 1 -20.357143,0 10.178572,10.178572 0 1 1 20.357143,0 z"
       transform="matrix(1.173526,0,0,1.173526,0.68018204,1026.1207)" />
    <path
       style="fill:#4d4d4d;stroke:#000000;stroke-width:1px;stroke-linecap:butt;stroke-linejoin:miter;stroke-opacity:1"
       d="M 3.0357143,6.4285714 C 8.75,5 11.964286,6.25 11.964286,6.25 c 0,0 0,6.428571 -4.6428574,6.25 C 2.6785714,12.321429 3.0357143,6.4285714 3.0357143,6.4285714 z"
       id="path3805"
       inkscape:connector-curvature="0"
       transform="translate(0,1027.3622)" />
    <path
       style="fill:#4d4d4d;stroke:#000000;stroke-width:1px;stroke-linecap:butt;stroke-linejoin:miter;stroke-opacity:1"
       d="m 22.496826,1033.7743 c -5.714285,-1.4286 -8.928571,-0.1786 -8.928571,-0.1786 0,0 0,6.4286 4.642857,6.25 4.642857,-0.1786 4.285714,-6.0714 4.285714,-6.0714 z"
       id="path3805-4"
       inkscape:connector-curvature="0" />
    <path
       style="fill:none;stroke:#000000;stroke-width:1px;stroke-linecap:butt;stroke-linejoin:miter;stroke-opacity:1"
       d="M 11.743023,5.9965052 13.51079,6.1227743"
       id="path3825"
       inkscape:connector-curvature="0"
       transform="translate(0,1027.3622)" />
    <path
       style="fill:none;stroke:#000000;stroke-width:1px;stroke-linecap:butt;stroke-linejoin:miter;stroke-opacity:1"
       d="M 2.9673231,7.4485995 0.56821081,8.7112902"
       id="path3827"
       inkscape:connector-curvature="0"
       transform="translate(0,1027.3622)" />
    <path
       style="fill:none;stroke:#000000;stroke-width:1px;stroke-linecap:butt;stroke-linejoin:miter;stroke-opacity:1"
       d="m 22.349625,7.5748686 1.894036,0.4419417"
       id="path3829"
       inkscape:connector-curvature="0"
       transform="translate(0,1027.3622)" />
    <path
       style="fill:#ffffff;stroke:#000000;stroke-width:1px;stroke-linecap:butt;stroke-linejoin:round;stroke-opacity:1"
       d="m 2.2097087,1041.1243 c 1.7046325,0.5051 19.8873783,0.5682 20.5818583,0.063 0.69448,-0.5051 -2.083439,8.3969 -9.975256,8.6494 -7.8918173,0.2526 -10.6066023,-8.7125 -10.6066023,-8.7125 z"
       id="path3831"
       inkscape:connector-curvature="0"
       sodipodi:nodetypes="cssc" />
    <path
       style="fill:none;stroke:#000000;stroke-width:1px;stroke-linecap:round;stroke-linejoin:miter;stroke-opacity:1"
       d="m 4.5456865,1044.5335 c 5.6189735,1.0102 15.0260185,0.8208 16.0361715,0.3788"
       id="path3833"
       inkscape:connector-curvature="0" />
  </g>
</svg>
